<svg xmlns="http://www.w3.org/2000/svg" viewBox="0 0 252.9 232.09" height="252.9" width="232.09">
    <polygon fill="#c03a2b" points="250.09 179.1 140.28 229.29 140.28 77.18 250.09 27.03 250.09 179.1"/>
    <polygon fill="#e64c3c" points="2.81 179.1 112.63 229.29 112.63 77.18 2.81 27.03 2.81 179.1"/>
    <rect fill="#e64c3c" x="112.63" y="77.18" width="27.65" height="152.08"/>
    <polygon fill="#e4c54c" points="212.49 121.39 174.87 138.58 174.87 86.43 212.49 69.23 212.49 121.39"/>
    <polygon fill="#e4c54c" points="40.41 121.39 78.03 138.58 78.03 86.43 40.41 69.23 40.41 121.39"/>
    <path d="M174.86,141.4c-.53,0-1.06-.15-1.52-.44-.8-.52-1.29-1.41-1.29-2.37v-52.15c0-1.1,.64-2.1,1.64-2.56l37.65-17.2c.87-.4,1.88-.33,2.69,.19,.8,.52,1.29,1.41,1.29,2.36v52.14c0,1.1-.64,2.1-1.64,2.55l-37.65,17.21c-.37,.17-.77,.26-1.17,.26Zm2.81-53.15v45.96l32.03-14.63v-45.96l-32.03,14.63Zm34.84,33.13h0Z"/>
    <path fill="#cdbf87" d="M126.45,72.65c0-40.12-15.57-57.46-52.22-69.84V27.03l52.22,45.63Z"/>
    <path d="M126.45,75.46c-.67,0-1.33-.24-1.85-.69L72.38,29.14c-.61-.53-.96-1.3-.96-2.12V2.81c0-.9,.44-1.76,1.17-2.28s1.68-.67,2.54-.38c39.46,13.33,54.13,32.98,54.13,72.51,0,1.1-.64,2.1-1.65,2.56-.37,.17-.77,.25-1.16,.25ZM77.04,25.75l46.46,40.6c-1.43-31.6-14.23-47.87-46.46-59.57V25.75Z"/>
    <path fill="#cdbf87" d="M126.45,77.2v-4.54c0-10.28-5.1-19.98-13.76-25.53C87.52,30.98,58.45,20.91,26.94,14.61L2.81,27.03l109.81,50.17h13.83Z"/>
    <path fill="#cdbf87" d="M126.45,77.2v-4.54c0-10.28,5.1-19.98,13.76-25.53,25.17-16.15,54.25-26.22,85.75-32.52l24.13,12.42-109.81,50.17h-13.83Z"/>
    <path d="M174.86,161.46c-1.07,0-2.09-.61-2.56-1.64-.64-1.41-.03-3.08,1.39-3.72l37.65-17.2c1.42-.65,3.08-.02,3.72,1.39,.64,1.41,.03,3.08-1.39,3.72l-37.65,17.2c-.38,.17-.78,.26-1.17,.26Z"/>
    <path d="M174.86,181.53c-1.07,0-2.09-.61-2.56-1.64-.64-1.41-.03-3.08,1.39-3.72l37.65-17.2c1.42-.65,3.08-.03,3.72,1.39,.64,1.41,.03,3.08-1.39,3.72l-37.65,17.2c-.38,.17-.78,.26-1.17,.26Z"/>
    <path d="M78.04,141.4c-.4,0-.8-.08-1.17-.26l-37.65-17.2c-1-.46-1.64-1.46-1.64-2.55v-52.14c0-.96,.49-1.85,1.29-2.36,.8-.52,1.82-.59,2.69-.19l37.65,17.2c1,.46,1.64,1.46,1.64,2.56v52.14c0,.96-.49,1.85-1.29,2.37-.46,.29-.99,.44-1.52,.44Zm-34.84-21.82l32.03,14.63v-45.96l-32.03-14.63s0,45.96,0,45.96Z"/>
    <path d="M78.04,161.46c-.39,0-.79-.08-1.17-.26l-37.65-17.2c-1.41-.64-2.03-2.31-1.39-3.72,.64-1.41,2.31-2.03,3.72-1.39l37.65,17.2c1.41,.64,2.03,2.31,1.39,3.72-.47,1.03-1.49,1.64-2.56,1.64Z"/>
    <path d="M78.04,181.53c-.39,0-.79-.08-1.17-.26l-37.65-17.2c-1.41-.64-2.03-2.31-1.39-3.72,.64-1.41,2.31-2.03,3.72-1.39l37.65,17.2c1.41,.64,2.03,2.31,1.39,3.72-.47,1.03-1.49,1.64-2.56,1.64Z"/>
    <path d="M140.28,232.09c-.53,0-1.06-.15-1.52-.45-.8-.52-1.29-1.4-1.29-2.36V77.2c0-1.1,.64-2.1,1.64-2.56L248.92,24.47c.87-.4,1.88-.33,2.69,.19,.8,.52,1.29,1.41,1.29,2.37V179.11c0,1.1-.64,2.1-1.64,2.55l-109.81,50.17c-.37,.17-.77,.26-1.17,.26Zm2.81-153.09V224.91l104.19-47.6V31.4l-104.19,47.6Zm107,100.11h0Z"/>
    <path d="M112.62,232.09c-.4,0-.8-.08-1.17-.26L1.64,181.67C.64,181.21,0,180.21,0,179.11V27.03c0-.96,.49-1.85,1.29-2.36,.8-.52,1.82-.59,2.69-.19l109.81,50.17c1,.46,1.64,1.46,1.64,2.56V229.29c0,.96-.49,1.85-1.29,2.36-.46,.29-.99,.44-1.52,.44ZM5.62,177.3l104.19,47.6V79L5.62,31.4V177.3Z"/>
    <path d="M140.28,232.09h-27.66c-1.55,0-2.81-1.26-2.81-2.81V77.2c0-1.55,1.26-2.81,2.81-2.81h27.66c1.55,0,2.81,1.26,2.81,2.81V229.28c0,1.55-1.26,2.81-2.81,2.81Zm-24.85-5.62h22.04V80.01h-22.04V226.47h0Z"/>
    <path d="M126.45,80.01h-13.83c-.4,0-.8-.09-1.17-.25L1.64,29.58C.66,29.13,.03,28.17,0,27.09c-.03-1.08,.56-2.07,1.52-2.57L25.66,12.1c.56-.29,1.22-.38,1.84-.26,34.62,6.92,62.99,17.69,86.72,32.91,9.42,6.05,15.05,16.47,15.05,27.89v4.54c0,1.55-1.26,2.81-2.81,2.81Zm-13.22-5.62h10.41v-1.73c0-9.49-4.66-18.16-12.47-23.16-22.91-14.7-50.34-25.15-83.82-31.94L9.24,26.87l103.99,47.51Z"/>
    <path d="M140.28,80.01h-13.83c-1.55,0-2.81-1.26-2.81-2.81v-4.54c0-11.42,5.63-21.84,15.05-27.89,23.73-15.22,52.1-25.99,86.72-32.91,.63-.13,1.27-.03,1.84,.26l24.13,12.42c.96,.49,1.55,1.49,1.52,2.57s-.66,2.04-1.64,2.49l-109.81,50.17c-.37,.17-.77,.25-1.17,.25Zm-11.02-5.62h10.41L243.66,26.87l-18.11-9.32c-33.48,6.79-60.91,17.24-83.82,31.94-7.81,5-12.47,13.67-12.47,23.16v1.73Z"/>
</svg>
